<svg width="32" height="32" viewBox="0 0 32 32" fill="none" xmlns="http://www.w3.org/2000/svg">
  <!-- Background with gradient -->
  <defs>
    <linearGradient id="bgGradient" x1="0%" y1="0%" x2="100%" y2="100%">
      <stop offset="0%" style="stop-color:#1a1a1a;stop-opacity:1" />
      <stop offset="100%" style="stop-color:#2d2d2d;stop-opacity:1" />
    </linearGradient>
    <linearGradient id="yellowGradient" x1="0%" y1="0%" x2="100%" y2="100%">
      <stop offset="0%" style="stop-color:#ffda17;stop-opacity:1" />
      <stop offset="100%" style="stop-color:#ffc107;stop-opacity:1" />
    </linearGradient>
    <linearGradient id="whiteGradient" x1="0%" y1="0%" x2="100%" y2="100%">
      <stop offset="0%" style="stop-color:#ffffff;stop-opacity:1" />
      <stop offset="100%" style="stop-color:#f8f9fa;stop-opacity:1" />
    </linearGradient>
  </defs>
  
  <!-- Main background circle -->
  <circle cx="16" cy="16" r="16" fill="url(#bgGradient)"/>
  
  <!-- Tech circuit pattern background -->
  <path d="M8 8h16v2H8V8zm0 4h12v2H8v-2zm0 4h16v2H8v-2zm0 4h10v2H8v-2z" fill="#ffda17" opacity="0.1"/>
  
  <!-- Modern "C" for Compu -->
  <path d="M12 7C9.2 7 7 9.2 7 12v8c0 2.8 2.2 5 5 5h3v-3h-3c-1.1 0-2-0.9-2-2v-8c0-1.1 0.9-2 2-2h3V7h-3z" fill="url(#whiteGradient)" stroke="#ffda17" stroke-width="0.5"/>
  
  <!-- Dynamic "Z" for Zign with tech styling -->
  <path d="M18 7v3h5l-5 8h7v-3h-5l5-8h-7z" fill="url(#yellowGradient)"/>
  
  <!-- Tech accent dots with glow effect -->
  <circle cx="11" cy="6" r="1.5" fill="#ffda17" opacity="0.8">
    <animate attributeName="opacity" values="0.8;1;0.8" dur="2s" repeatCount="indefinite"/>
  </circle>
  <circle cx="21" cy="6" r="1.5" fill="#ffffff" opacity="0.6">
    <animate attributeName="opacity" values="0.6;0.9;0.6" dur="2.5s" repeatCount="indefinite"/>
  </circle>
  <circle cx="11" cy="26" r="1.5" fill="#ffffff" opacity="0.7">
    <animate attributeName="opacity" values="0.7;1;0.7" dur="3s" repeatCount="indefinite"/>
  </circle>
  <circle cx="21" cy="26" r="1.5" fill="#ffda17" opacity="0.9">
    <animate attributeName="opacity" values="0.9;1;0.9" dur="1.8s" repeatCount="indefinite"/>
  </circle>
  
  <!-- Connecting tech lines with animation -->
  <line x1="11" y1="6" x2="21" y2="6" stroke="#ffda17" stroke-width="0.8" opacity="0.5">
    <animate attributeName="opacity" values="0.5;0.8;0.5" dur="2s" repeatCount="indefinite"/>
  </line>
  <line x1="11" y1="26" x2="21" y2="26" stroke="#ffffff" stroke-width="0.8" opacity="0.4">
    <animate attributeName="opacity" values="0.4;0.7;0.4" dur="2.2s" repeatCount="indefinite"/>
  </line>
  
  <!-- Central tech diamond -->
  <polygon points="16,11 19,14 16,17 13,14" fill="#ffda17" opacity="0.3">
    <animateTransform attributeName="transform" type="rotate" values="0 16 14;360 16 14" dur="8s" repeatCount="indefinite"/>
  </polygon>
  
  <!-- Data flow particles -->
  <circle cx="5" cy="16" r="0.8" fill="#ffda17" opacity="0.6">
    <animate attributeName="cx" values="5;27;5" dur="4s" repeatCount="indefinite"/>
    <animate attributeName="opacity" values="0.6;1;0.6" dur="4s" repeatCount="indefinite"/>
  </circle>
  <circle cx="27" cy="16" r="0.8" fill="#ffffff" opacity="0.5">
    <animate attributeName="cx" values="27;5;27" dur="5s" repeatCount="indefinite"/>
    <animate attributeName="opacity" values="0.5;0.9;0.5" dur="5s" repeatCount="indefinite"/>
  </circle>
</svg> 